<?xml version="1.0" standalone="no"?>
<!DOCTYPE svg PUBLIC "-//W3C//DTD SVG 20010904//EN"
 "http://www.w3.org/TR/2001/REC-SVG-20010904/DTD/svg10.dtd">
<svg height="48" viewBox="0 0 48 48" width="48" version="1.0" xmlns="http://www.w3.org/2000/svg"
 preserveAspectRatio="xMidYMid meet">

<g transform="translate(0.000000,924.000000) scale(0.100000,-0.100000)"
fill="#fffffff" stroke="none">
<path d="M4495 8638 c-3 -7 -14 -67 -25 -133 -72 -428 -214 -778 -577 -1426
-88 -156 -181 -324 -208 -374 -26 -49 -49 -91 -50 -93 -2 -2 -92 86 -201 196
-223 223 -352 331 -624 524 -122 86 -452 278 -479 278 -17 0 -14 -21 23 -144
85 -280 115 -603 85 -926 -12 -131 -56 -461 -63 -468 -3 -2 -53 5 -113 17
-295 58 -490 75 -848 76 -305 0 -420 -6 -438 -24 -6 -6 5 -33 27 -69 50 -82
100 -195 145 -326 40 -115 63 -197 155 -546 72 -273 134 -461 223 -677 3 -8
-3 -13 -16 -13 -38 0 -372 -70 -531 -111 -276 -72 -778 -247 -787 -276 -3 -7
17 -14 54 -18 203 -23 426 -120 878 -385 353 -208 444 -258 615 -344 296 -147
516 -228 779 -283 116 -25 145 -27 366 -27 211 -1 253 2 350 21 334 68 583
200 810 427 232 233 377 503 450 839 6 28 6 28 49 -30 24 -32 54 -68 67 -80
40 -37 135 -89 194 -108 l56 -17 -63 -22 c-227 -76 -366 -277 -343 -496 16
-159 80 -269 274 -473 130 -137 196 -222 221 -287 30 -77 43 -78 76 -4 37 83
74 132 192 257 247 258 302 358 302 542 0 127 -30 212 -113 317 -54 68 -207
158 -268 158 -11 0 -17 5 -14 10 3 6 14 10 23 10 34 1 134 49 187 90 31 24 75
69 99 100 l43 58 13 -56 c37 -171 131 -398 225 -543 157 -245 374 -438 630
-560 216 -104 410 -148 677 -156 259 -8 450 20 707 102 182 59 298 108 511
214 160 80 282 149 725 406 169 99 388 210 485 248 85 33 199 63 278 72 40 4
62 11 59 19 -2 6 -53 30 -113 54 -340 135 -756 254 -1094 313 -69 12 -126 23
-128 25 -2 1 21 67 51 146 76 197 114 324 212 697 92 352 164 556 248 700 21
34 37 68 37 75 0 21 -38 25 -310 32 -372 10 -723 -21 -1057 -92 -37 -7 -34
-15 -58 142 -49 323 -60 664 -30 889 17 130 51 284 91 409 15 48 21 83 16 88
-12 12 -116 -40 -294 -149 -327 -198 -574 -395 -854 -681 l-161 -164 -60 114
c-33 62 -118 214 -188 338 -244 430 -368 686 -457 945 -53 153 -111 371 -133
505 -21 128 -24 140 -35 140 -6 0 -11 -738 -12 -2027 -3 -1947 -4 -2030 -22
-2083 -46 -136 -115 -225 -214 -278 -146 -78 -302 -82 -449 -11 -64 31 -163
131 -196 199 -59 122 -57 14 -57 2192 0 1330 -3 1999 -10 2003 -6 3 -12 0 -15
-7z m1211 -1273 c56 -133 176 -365 317 -612 68 -120 136 -241 151 -269 l28
-52 -59 -78 c-266 -351 -427 -683 -567 -1169 -12 -44 -14 105 -14 1270 l-1
1320 53 -160 c30 -88 71 -200 92 -250z m-1286 -910 c0 -722 -4 -1305 -9 -1305
-5 0 -12 17 -16 37 -35 188 -195 588 -322 808 -61 104 -187 293 -251 375 l-50
64 23 41 c278 489 350 622 413 755 64 137 136 322 169 433 15 53 31 97 36 97
4 0 7 -587 7 -1305z m-1756 783 c310 -189 603 -429 850 -695 l58 -62 -40 -93
c-79 -184 -159 -480 -175 -648 -2 -19 -8 -35 -13 -35 -5 0 -78 35 -163 78
-169 84 -358 161 -508 206 -90 27 -98 31 -96 53 2 12 12 93 23 178 13 95 23
243 27 380 6 251 -7 403 -52 585 -27 109 -28 115 -18 115 3 0 52 -28 107 -62z
m4762 40 c-24 -80 -57 -246 -67 -331 -23 -195 -1 -657 44 -915 1 -9 -26 -22
-80 -38 -156 -45 -338 -118 -515 -206 -98 -48 -180 -88 -183 -88 -3 0 -5 13
-5 29 0 124 -89 458 -180 673 l-33 77 51 58 c157 180 457 439 683 591 110 73
271 172 282 172 5 0 6 -10 3 -22z m-3585 -1136 c200 -279 358 -585 455 -881
121 -369 153 -775 84 -1046 -20 -78 -76 -233 -89 -248 -4 -4 1 32 11 80 37
172 11 440 -64 652 -115 329 -393 670 -728 892 l-22 14 17 90 c31 170 96 372
168 528 l40 88 23 -28 c13 -15 60 -79 105 -141z m2470 71 c73 -167 130 -350
162 -526 l15 -77 -117 -87 c-384 -289 -630 -669 -696 -1078 -19 -115 -19 -310
0 -399 8 -38 13 -71 11 -73 -5 -5 -58 132 -80 207 -94 315 -38 820 141 1263
86 214 224 466 368 672 65 93 143 195 149 195 2 0 23 -44 47 -97z m2446 -207
c2 -1 -24 -55 -56 -119 -70 -139 -126 -304 -216 -637 -78 -286 -109 -386 -178
-573 l-52 -139 -35 6 c-19 3 -149 8 -287 12 -285 8 -261 -1 -243 94 43 229 24
718 -45 1130 -12 74 -21 136 -20 137 10 14 410 68 610 83 209 15 507 18 522 6z
m-6952 -11 c199 -18 529 -65 541 -78 2 -2 -7 -75 -21 -163 -44 -286 -58 -455
-59 -719 -1 -223 8 -362 30 -451 5 -21 2 -21 -243 -28 -136 -4 -268 -9 -292
-9 l-43 -2 -30 75 c-60 155 -129 374 -207 661 -95 348 -135 464 -212 617 l-58
112 212 0 c117 0 289 -7 382 -15z m970 -190 c172 -57 347 -132 487 -208 71
-39 85 -50 81 -67 -8 -28 16 -310 33 -404 69 -369 225 -708 459 -996 52 -63
62 -80 40 -66 -398 261 -883 434 -1323 474 l-77 7 -14 70 c-9 46 -14 154 -14
320 -2 275 10 407 65 743 l32 194 35 -7 c20 -3 108 -30 196 -60z m4665 13 c42
-196 86 -566 96 -808 6 -155 -15 -433 -35 -453 -5 -5 -62 -15 -127 -23 -420
-52 -850 -203 -1198 -423 -53 -33 -93 -55 -89 -49 3 7 36 48 71 92 281 348
450 796 470 1246 l7 155 70 39 c89 49 286 139 390 178 100 37 294 97 317 98
12 0 19 -14 28 -52z m-3869 -420 c180 -134 392 -371 500 -561 141 -248 208
-559 168 -783 -9 -54 -46 -183 -56 -193 -6 -7 -118 106 -202 204 -298 349
-455 694 -500 1097 -13 116 -14 298 -3 298 5 0 47 -28 93 -62z m2934 5 c8 -74
-10 -290 -36 -416 -58 -287 -208 -596 -414 -852 -73 -91 -244 -275 -255 -275
-16 0 -59 157 -68 249 -9 91 -2 232 18 326 53 255 210 534 426 761 80 83 295
263 316 264 3 0 9 -26 13 -57z m-4137 -1088 c171 -491 515 -786 987 -845 193
-25 372 3 545 85 l95 45 -40 -35 c-84 -73 -238 -148 -383 -187 -96 -25 -320
-35 -454 -19 -530 62 -1017 420 -1284 945 -27 52 -46 97 -43 100 11 12 216 23
377 22 l162 -1 38 -110z m5676 104 c78 -6 143 -13 146 -16 3 -2 -15 -43 -40
-90 -227 -434 -582 -751 -994 -888 -179 -60 -248 -70 -471 -70 -187 0 -206 2
-297 27 -106 30 -220 82 -309 141 -94 62 -94 75 -1 30 114 -56 222 -83 358
-90 243 -13 490 54 694 189 82 54 231 202 295 293 70 99 146 253 186 377 l34
107 129 1 c72 0 193 -5 270 -11z m-5409 -14 c95 -9 317 -50 428 -80 364 -97
730 -270 1015 -480 l71 -52 -42 -40 c-96 -93 -245 -170 -405 -210 -104 -26
-294 -23 -402 6 -352 96 -626 369 -761 757 -37 107 -37 117 -1 110 15 -2 59
-8 97 -11z m4835 7 c0 -21 -55 -174 -91 -249 -197 -428 -621 -690 -1025 -633
-192 27 -327 90 -499 233 l-30 25 25 21 c26 22 209 145 295 199 76 47 367 185
478 226 212 79 476 142 707 170 147 18 140 17 140 8z m-5840 -94 c122 -230
321 -481 505 -636 433 -364 1031 -502 1495 -345 41 14 118 47 170 74 84 43 91
45 60 18 -90 -77 -296 -174 -463 -218 -123 -32 -291 -52 -422 -50 -202 2 -342
27 -555 98 -263 88 -448 183 -965 496 -335 202 -537 307 -676 352 -49 15 -89
31 -89 34 0 8 315 110 445 145 112 30 409 93 441 93 16 1 29 -14 54 -61z
m6880 41 c227 -41 770 -194 770 -217 0 -4 -39 -21 -87 -37 -118 -39 -370 -168
-578 -295 -604 -366 -770 -454 -1037 -545 -448 -154 -904 -137 -1273 48 -69
34 -225 133 -225 143 0 1 48 -21 108 -51 202 -100 339 -131 582 -129 135 1
188 6 291 28 535 110 982 459 1278 999 24 42 46 77 50 77 4 0 58 -9 121 -21z"/>
<path d="M8961 2837 c-163 -85 -140 -328 35 -383 171 -54 330 120 255 281 -22
47 -74 99 -114 114 -49 19 -130 13 -176 -12z m169 -29 c59 -31 82 -66 87 -130
7 -89 -48 -158 -138 -173 -52 -9 -124 26 -157 75 -20 29 -23 45 -20 93 3 36
12 67 24 85 24 32 98 72 134 72 14 0 46 -10 70 -22z"/>
<path d="M8980 2750 c-21 -5 -22 -7 -7 -13 14 -5 17 -19 17 -82 0 -60 -3 -75
-15 -75 -8 0 -15 -4 -15 -10 0 -5 23 -10 50 -10 48 0 66 12 35 24 -17 6 -21
51 -6 61 6 3 15 -5 22 -17 20 -40 52 -68 76 -68 28 0 29 11 3 35 -29 26 -33
51 -15 79 41 62 -37 102 -145 76z m100 -25 c7 -9 10 -25 6 -41 -9 -33 -49 -31
-54 4 -7 48 21 69 48 37z"/>
<path d="M1352 2361 c-8 -5 -12 -23 -10 -47 l3 -39 3639 -3 c2905 -2 3641 0
3648 10 12 19 10 62 -4 76 -9 9 -831 12 -3637 12 -1995 0 -3632 -4 -3639 -9z"/>
<path d="M5230 1983 c-241 -31 -415 -159 -481 -353 -32 -94 -32 -257 -1 -355
58 -176 203 -296 405 -336 95 -19 263 -13 365 11 105 25 118 37 147 135 38
126 12 178 -39 80 -62 -119 -170 -179 -311 -173 -96 4 -170 35 -240 99 -90 83
-134 190 -142 349 -14 261 108 441 325 481 156 29 301 -47 349 -183 17 -45 34
-60 47 -39 11 17 -7 222 -20 236 -28 27 -309 61 -404 48z"/>
<path d="M6538 1978 c-263 -30 -468 -259 -468 -523 0 -236 166 -450 395 -510
73 -19 213 -19 280 -1 176 47 317 181 377 354 31 93 31 221 0 313 -85 248
-321 396 -584 367z m167 -75 c176 -62 280 -354 216 -606 -25 -97 -52 -148
-109 -209 -58 -62 -109 -89 -182 -95 -201 -19 -354 182 -353 462 1 324 196
529 428 448z"/>
<path d="M2494 1960 c-152 -50 -236 -199 -190 -337 34 -101 112 -165 285 -232
126 -49 176 -82 202 -132 22 -45 25 -116 5 -162 -43 -102 -191 -141 -310 -83
-65 32 -117 89 -154 169 -21 45 -31 57 -47 55 -18 -3 -20 -9 -17 -77 2 -40 11
-94 20 -120 14 -38 25 -50 62 -68 127 -61 361 -59 482 3 51 26 101 78 124 129
19 39 24 67 24 129 0 92 -21 146 -77 201 -38 37 -145 92 -233 120 -170 54
-243 139 -211 245 24 82 82 123 172 123 104 -1 193 -64 220 -153 10 -33 17
-40 33 -38 19 3 21 9 20 74 -1 39 -7 88 -13 107 -16 48 -50 58 -211 63 -105 3
-135 1 -186 -16z"/>
<path d="M1360 1941 c0 -15 10 -20 50 -25 37 -5 53 -12 62 -29 17 -29 24 -776
8 -836 -11 -41 -43 -61 -96 -61 -17 0 -24 -6 -24 -20 0 -20 5 -20 218 -18 177
3 217 6 217 17 0 8 -20 19 -48 26 -27 7 -54 18 -60 24 -9 9 -13 123 -15 428
-3 473 -6 455 75 469 33 6 49 15 51 27 3 16 -13 17 -217 17 -209 0 -221 -1
-221 -19z"/>
<path d="M3420 1941 c0 -14 10 -20 44 -25 84 -13 81 6 81 -450 0 -220 -3 -413
-7 -428 -8 -27 -49 -48 -94 -48 -17 0 -24 -6 -24 -20 0 -19 7 -20 215 -20 203
0 215 1 215 19 0 14 -10 20 -41 24 -23 3 -48 12 -57 20 -19 20 -34 172 -30
305 3 88 6 106 22 117 13 10 24 11 37 4 20 -10 132 -147 257 -313 87 -115 91
-131 34 -138 -16 -2 -27 -9 -27 -18 0 -13 31 -15 213 -18 207 -2 212 -2 212
18 0 15 -7 20 -27 20 -50 1 -107 35 -159 96 -163 191 -354 440 -354 461 0 9
66 82 148 163 157 156 214 194 304 206 38 5 48 10 48 25 0 18 -11 19 -180 19
-173 0 -180 -1 -180 -20 0 -11 6 -20 13 -20 7 0 22 -6 32 -14 19 -13 18 -15
-10 -56 -17 -24 -95 -110 -175 -193 -121 -124 -150 -148 -170 -145 -21 2 -26
10 -32 48 -10 65 1 290 15 320 9 19 24 27 60 34 36 7 47 14 47 28 0 17 -13 18
-215 18 -204 0 -215 -1 -215 -19z"/>
<path d="M7492 1943 c2 -9 23 -23 49 -32 109 -37 109 -37 109 -463 0 -219 -4
-368 -11 -391 -8 -30 -18 -42 -44 -53 -19 -8 -44 -14 -55 -14 -13 0 -20 -7
-20 -20 0 -19 7 -20 170 -20 159 0 170 1 170 19 0 14 -10 20 -38 24 -52 9 -72
26 -82 72 -5 22 -10 182 -10 355 l0 315 48 -50 c130 -137 529 -592 638 -729
24 -31 35 -37 52 -32 l21 7 3 463 c3 525 1 507 80 523 28 6 44 15 46 26 3 16
-12 17 -178 17 -167 0 -181 -1 -178 -17 2 -10 14 -19 28 -21 53 -7 88 -24 101
-50 11 -21 15 -94 16 -332 l3 -305 -96 100 c-121 127 -311 347 -434 503 l-95
121 -148 0 c-133 1 -148 -1 -145 -16z"/>
<path d="M1347 633 c-14 -14 -7 -81 9 -87 9 -3 1646 -6 3638 -6 2804 0 3625 3
3634 12 15 15 15 61 0 76 -9 9 -832 12 -3643 12 -1998 0 -3635 -3 -3638 -7z"/>
</g>
</svg>
